<?xml version="1.0" standalone="no"?>
<!DOCTYPE svg PUBLIC "-//W3C//DTD SVG 20010904//EN"
 "http://www.w3.org/TR/2001/REC-SVG-20010904/DTD/svg10.dtd">
<svg version="1.0" xmlns="http://www.w3.org/2000/svg"
 width="240.000000pt" height="240.000000pt" viewBox="0 0 240.000000 240.000000"
 preserveAspectRatio="xMidYMid meet">

<g transform="translate(0.000000,240.000000) scale(0.100000,-0.100000)"
fill="#000000" stroke="none">
<path d="M696 1138 c-3 -13 -6 -108 -6 -213 0 -220 7 -244 78 -266 59 -17 98
5 147 86 29 47 44 63 55 59 214 -92 450 -25 582 164 16 24 27 49 25 56 -8 21
-70 27 -81 8 -17 -30 -88 -102 -96 -97 -17 11 -78 125 -67 126 7 0 -10 6 -38
13 -27 7 -53 11 -57 9 -17 -8 -6 -38 37 -110 25 -40 45 -78 45 -82 0 -35 -222
-50 -288 -21 l-32 15 50 83 c27 46 50 89 50 96 0 23 -34 43 -90 54 -30 5 -56
9 -58 8 -1 -2 9 -20 23 -40 l26 -38 -97 -154 c-53 -85 -101 -153 -108 -151 -8
2 -12 65 -14 204 -2 198 -3 201 -25 207 -40 10 -55 6 -61 -16z"/>
</g>
</svg>
